<svg width="68" height="25" viewBox="0 0 68 25" fill="none" xmlns="http://www.w3.org/2000/svg">
<path d="M20.5439 6.81152L20.6689 7.12891L23.0684 13.2246L23.0752 13.2402L23.0801 13.2559L23.291 13.917L23.4932 13.2607L23.499 13.2422L23.5059 13.2246L25.9062 7.12891L26.0312 6.81152H30.5566L30.2646 7.50586L23.2803 24.0664L23.1514 24.3721H18.626L18.9287 23.6738L21.0752 18.709L16.335 7.50684L16.041 6.81152H20.5439ZM51.5381 6.52441C53.5052 6.52449 55.0964 7.19829 56.1934 8.375C57.2859 9.54701 57.8457 11.1715 57.8457 13C57.8457 13.3832 57.8457 13.6401 57.8203 13.9961L57.7871 14.46H54.6328L54.9365 14.8057L56.7129 16.8213L56.9854 17.1309L56.7334 17.457C56.2124 18.1329 55.3876 18.6392 54.499 18.9756C53.6035 19.3146 52.5955 19.4999 51.6582 19.5C49.6301 19.5 48.0029 18.8014 46.8857 17.6113C45.7732 16.4261 45.2061 14.796 45.2061 13C45.2061 11.1715 45.7653 9.54621 46.8613 8.37402C47.9618 7.1972 49.5598 6.52441 51.5381 6.52441ZM35.2217 0.5V7.06934C35.4314 6.97081 35.6514 6.88905 35.8662 6.82227C36.4913 6.62796 37.1894 6.52441 37.7695 6.52441C39.7838 6.52444 41.3911 7.26565 42.4912 8.46484C43.5855 9.65771 44.1493 11.2715 44.1494 12.9756C44.1494 14.875 43.5781 16.4934 42.4629 17.6387C41.3456 18.786 39.7359 19.4043 37.7695 19.4043C37.2467 19.4043 36.5952 19.2831 35.9961 19.0693C35.7683 18.9881 35.5378 18.8875 35.3174 18.7705V19.0918H31.1738V0.5H35.2217ZM63.8076 6.5C64.4829 6.5 65.761 6.56927 66.5713 6.86621L66.9863 7.01855L66.8867 7.44824L66.2383 10.2568L66.1133 10.7988L65.5879 10.6162C65.0265 10.4219 64.5314 10.3565 63.9277 10.3564C63.6711 10.3564 63.4706 10.3683 63.2998 10.3984V19.0918H59.2031V7.51074L59.4756 7.37109C60.5035 6.844 62.1964 6.5 63.8076 6.5ZM7.0957 6.02441C8.07378 6.02441 9.89386 6.33661 11.583 6.79883C12.4337 7.03162 13.2711 7.30772 13.9697 7.61133C14.6462 7.90529 15.27 8.25694 15.6152 8.67285L16.1094 9.26758L15.3643 9.47363L9.96484 10.9658L9.66992 11.0479L9.46289 10.8213C8.79691 10.0929 8.09443 9.80762 7.0957 9.80762C5.7741 9.80778 4.5957 10.87 4.5957 12.5C4.5957 13.4251 4.88424 14.0948 5.31348 14.5312C5.74346 14.9684 6.35819 15.2158 7.0957 15.2158C8.00981 15.2158 8.98958 14.8622 9.4873 14.2305L9.73535 13.916L10.0957 14.0889L15.3984 16.6289L15.9766 16.9062L15.5674 17.3994C15.2007 17.841 14.5534 18.1221 13.8838 18.3184C13.1884 18.5221 12.36 18.6642 11.5225 18.7637C9.8445 18.963 8.06407 19 7.0957 19C5.08969 18.9999 3.4303 18.35 2.27148 17.1846C1.11352 16.02 0.5 14.3855 0.5 12.5C0.5 10.6242 1.12074 8.99548 2.28125 7.83496C3.44231 6.67399 5.10109 6.02448 7.0957 6.02441ZM49.457 14.46C49.5801 14.787 49.7712 15.0537 50.0186 15.2568C50.3981 15.5684 50.9458 15.7637 51.6582 15.7637C52.7114 15.7636 53.6387 15.4116 54.1904 14.8008L54.498 14.46H49.457ZM37.6494 10.3564C36.2209 10.3565 35.174 11.4282 35.1738 12.9756C35.1738 14.4966 36.2183 15.5723 37.6494 15.5723C38.3593 15.5723 38.9304 15.3115 39.3271 14.8789C39.727 14.4428 39.9814 13.7958 39.9814 12.9756C39.9814 12.1419 39.7261 11.4892 39.3262 11.0508C38.9296 10.616 38.3591 10.3564 37.6494 10.3564ZM51.5381 10.2598C50.5624 10.2598 49.8228 10.7237 49.5176 11.3965H53.5068C53.2043 10.7141 52.4979 10.2599 51.5381 10.2598Z" fill="white" stroke="black"/>
</svg>
